<svg width="1498" height="530" viewBox="0 0 1498 530" fill="none" xmlns="http://www.w3.org/2000/svg">
<g opacity="0.5">
<path d="M460.494 8.28125H561.285V508.784H460.287V8.28125H460.494Z" fill="#323234"/>
<path d="M629.791 8.2854H730.789V508.788H629.791V8.2854Z" fill="#323234"/>
<path d="M1015.57 151.319H1116.57V360.837C1116.57 464.467 1048.68 521.72 963.621 521.72H944.787C859.725 521.72 791.841 464.467 791.841 360.837V151.319H892.839V365.146C892.839 405.162 919.537 428.76 951.203 428.76H956.998C988.663 428.76 1015.36 405.162 1015.36 365.146V151.319H1015.57Z" fill="#323234"/>
<path d="M1169.96 508.788V299.271C1169.96 194.204 1241.37 138.387 1326.43 138.387H1338.02C1426.8 138.387 1498 202.823 1498 302.759V311.378L1397.83 315.687L1397.21 301.323C1395.14 252.073 1366.16 231.962 1335.12 231.962H1332.22C1300.56 231.962 1270.96 253.509 1270.96 299.886V508.583H1169.96V508.788Z" fill="#323234"/>
<path d="M198.685 427.519C144.047 427.519 101.619 386.272 101.619 330.661C101.619 275.049 144.047 233.802 198.685 233.802C256.221 233.802 299.269 274.433 299.269 330.661C299.269 388.529 256.221 427.519 198.685 427.519ZM188.544 517.4C291.197 517.4 348.733 458.3 352.252 377.038C354.321 340.716 395.3 356.312 395.3 330.661C395.3 223.131 306.927 141.869 197.65 141.869C87.7525 141.869 0 223.131 0 330.661C0.413927 439.01 85.2689 517.4 188.544 517.4ZM312.101 508.781H395.507V330.045H305.064L312.101 508.781Z" fill="#323234"/>
</g>
</svg>
