<?xml version="1.0" encoding="UTF-8"?>
<!DOCTYPE svg PUBLIC "-//W3C//DTD SVG 1.1//EN" "http://www.w3.org/Graphics/SVG/1.1/DTD/svg11.dtd">
<!-- Creator: CorelDRAW 2020 (64-Bit) -->
<svg xmlns="http://www.w3.org/2000/svg" xml:space="preserve" width="297mm" height="210mm" version="1.1" style="shape-rendering:geometricPrecision; text-rendering:geometricPrecision; image-rendering:optimizeQuality; fill-rule:evenodd; clip-rule:evenodd"
viewBox="0 0 29700 21000"
 xmlns:xlink="http://www.w3.org/1999/xlink"
 xmlns:xodm="http://www.corel.com/coreldraw/odm/2003">
 <defs>
  <style type="text/css">
   <![CDATA[
    .fil0 {fill:white;fill-rule:nonzero}
   ]]>
  </style>
 </defs>
 <g id="Слой_x0020_1">
  <metadata id="CorelCorpID_0Corel-Layer"/>
  <g id="_1679407572304">
   <polygon class="fil0" points="9550.01,6125.02 11330.79,6125.02 11330.79,14967.96 9546.35,14967.96 9546.35,6125.02 "/>
   <polygon class="fil0" points="12541.17,6125.09 14325.61,6125.09 14325.61,14968.03 12541.17,14968.03 "/>
   <path class="fil0" d="M19357.15 8652.23l1784.48 0 0 3701.79c0,1830.94 -1199.49,2842.49 -2702.32,2842.49l-332.76 0c-1502.88,0 -2702.27,-1011.55 -2702.27,-2842.49l0 -3701.79 1784.45 0 0 3777.92c0,707 471.7,1123.94 1031.18,1123.94l102.39 0c559.46,0 1031.14,-416.94 1031.14,-1123.94l0 -3777.92 3.71 0z"/>
   <path class="fil0" d="M22084.93 14968.03l0 -3701.77c0,-1856.33 1261.68,-2842.52 2764.54,-2842.52l204.77 0c1568.57,0 2826.54,1138.46 2826.54,2904.14l0 152.28 -1769.81 76.14 -10.96 -253.78c-36.57,-870.16 -548.59,-1225.48 -1097.01,-1225.48l-51.24 0c-559.37,0 -1082.35,380.69 -1082.35,1200.09l0 3687.28 -1784.48 0 0 3.62z"/>
   <path class="fil0" d="M4924.34 13532.16c-965.35,0 -1714.97,-728.75 -1714.97,-1711.3 0,-982.56 749.62,-1711.32 1714.97,-1711.32 1016.55,0 1777.13,717.88 1777.13,1711.32 0,1022.42 -760.58,1711.3 -1777.13,1711.3zm-179.17 1588.02c1813.68,0 2830.23,-1044.18 2892.41,-2479.92 36.55,-641.75 760.58,-366.2 760.58,-819.4 0,-1899.85 -1561.39,-3335.6 -3492.11,-3335.6 -1941.68,0 -3492.1,1435.75 -3492.1,3335.6 7.31,1914.32 1506.54,3299.32 3331.22,3299.32zm2183.01 -152.27l1473.63 0 0 -3157.93 -1597.96 0 124.33 3157.93z"/>
  </g>
 </g>
</svg>
